<svg width="83" height="94" viewBox="0 0 83 94" fill="none" xmlns="http://www.w3.org/2000/svg">
<g filter="url(#filter0_d_1_145)">
<path fill-rule="evenodd" clip-rule="evenodd" d="M5 7.4895H19.7908V10.8294H47.9412V7.4895H63.2092V50.9078C62.732 50.9078 61.7778 50.9078 61.3007 50.9078C59.3922 50.9078 57.9608 50.9078 56.5294 51.3849V15.6006H19.3137L12.1569 21.8032V67.13H44.6013V67.6071C44.6013 69.9928 45.0784 72.3784 46.0327 74.2869H5V7.4895V7.4895Z" stroke="#EF7F1A" stroke-width="1.80791" stroke-miterlimit="22.9256" stroke-linecap="round" stroke-linejoin="round"/>
<path fill-rule="evenodd" clip-rule="evenodd" d="M19.7908 4.14941H28.3791V5.10366H38.8758V4.14941H47.9412V10.8292H19.7908V4.14941Z" stroke="#EF7F1A" stroke-width="1.80791" stroke-miterlimit="22.9256" stroke-linecap="round" stroke-linejoin="round"/>
<path d="M38.8758 1.76392H28.3791V5.10379H38.8758V1.76392Z" stroke="#EF7F1A" stroke-width="1.80791" stroke-miterlimit="22.9256" stroke-linecap="round" stroke-linejoin="round"/>
<path fill-rule="evenodd" clip-rule="evenodd" d="M19.3137 15.6006H56.5294V51.3849C49.8497 53.2934 44.6013 59.496 44.6013 67.13H12.1569V21.8032L19.3137 15.6006V15.6006Z" stroke="#EF7F1A" stroke-width="1.80791" stroke-miterlimit="22.9256" stroke-linecap="round" stroke-linejoin="round"/>
<path fill-rule="evenodd" clip-rule="evenodd" d="M19.3137 15.6006L12.1569 21.8032H19.3137V15.6006Z" stroke="#EF7F1A" stroke-width="0.903955" stroke-miterlimit="22.9256" stroke-linecap="round" stroke-linejoin="round"/>
<path d="M25.0392 28.0056H17.8824V34.6854H25.0392V28.0056Z" stroke="#EF7F1A" stroke-width="0.903955" stroke-miterlimit="22.9256" stroke-linecap="round" stroke-linejoin="round"/>
<path d="M25.0392 41.3652H17.8824V48.045H25.0392V41.3652Z" stroke="#EF7F1A" stroke-width="0.903955" stroke-miterlimit="22.9256" stroke-linecap="round" stroke-linejoin="round"/>
<path d="M25.0392 53.7705H17.8824V60.4502H25.0392V53.7705Z" stroke="#EF7F1A" stroke-width="0.903955" stroke-miterlimit="22.9256" stroke-linecap="round" stroke-linejoin="round"/>
<path d="M29.3333 30.3914H51.281" stroke="#EF7F1A" stroke-width="0.903955" stroke-miterlimit="22.9256" stroke-linecap="round" stroke-linejoin="round"/>
<path d="M29.8105 32.7769H43.1699" stroke="#EF7F1A" stroke-width="0.903955" stroke-miterlimit="22.9256" stroke-linecap="round" stroke-linejoin="round"/>
<path d="M29.3333 43.2737H51.281" stroke="#EF7F1A" stroke-width="0.903955" stroke-miterlimit="22.9256" stroke-linecap="round" stroke-linejoin="round"/>
<path d="M29.8105 45.6594H43.1699" stroke="#EF7F1A" stroke-width="0.903955" stroke-miterlimit="22.9256" stroke-linecap="round" stroke-linejoin="round"/>
<path d="M29.3333 56.156H48.8954" stroke="#EF7F1A" stroke-width="0.903955" stroke-miterlimit="22.9256" stroke-linecap="round" stroke-linejoin="round"/>
<path d="M29.8105 58.5417H43.1699" stroke="#EF7F1A" stroke-width="0.903955" stroke-miterlimit="22.9256" stroke-linecap="round" stroke-linejoin="round"/>
<path d="M19.3137 31.3455L21.2222 33.254L24.085 29.437" stroke="#EF7F1A" stroke-width="0.903955" stroke-miterlimit="22.9256" stroke-linecap="round" stroke-linejoin="round"/>
<path d="M19.3137 44.228L21.2222 46.6136L24.085 42.7966" stroke="#EF7F1A" stroke-width="0.903955" stroke-miterlimit="22.9256" stroke-linecap="round" stroke-linejoin="round"/>
<path d="M19.3137 57.1104L21.2222 59.0189L24.085 55.2019" stroke="#EF7F1A" stroke-width="0.903955" stroke-miterlimit="22.9256" stroke-linecap="round" stroke-linejoin="round"/>
<path d="M61.3007 84.3064C70.5235 84.3064 78 76.8299 78 67.6071C78 58.3843 70.5235 50.9077 61.3007 50.9077C52.0779 50.9077 44.6013 58.3843 44.6013 67.6071C44.6013 76.8299 52.0779 84.3064 61.3007 84.3064Z" stroke="#EF7F1A" stroke-width="1.80791" stroke-miterlimit="22.9256"/>
<path d="M70.8431 65.2214H65.5948V75.7182H70.8431V65.2214Z" stroke="#EF7F1A" stroke-width="0.903955" stroke-miterlimit="22.9256"/>
<path d="M65.5948 66.1757C64.6405 65.2215 63.2092 64.2672 62.732 63.313C61.7778 62.8358 61.3007 61.8816 61.3007 61.4045C60.8235 60.9273 60.8235 59.9731 60.8235 59.496C60.3464 58.5417 60.3464 58.0646 60.3464 57.5875C60.3464 57.5875 60.3464 57.1104 59.8693 57.1104C59.8693 57.1104 59.3922 57.1104 58.915 57.1104C58.4379 57.1104 58.4379 57.1104 58.4379 57.5875C57.9608 58.0646 57.9608 58.5417 57.9608 59.496C57.4837 59.9731 57.4837 60.9273 57.9608 61.8816C57.9608 62.8358 57.9608 63.313 58.4379 64.2672C58.4379 64.7443 58.915 64.7443 58.915 64.7443C58.915 65.2215 58.4379 65.2215 57.4837 65.2215C56.5294 65.2215 54.1438 65.2215 53.1895 65.2215C52.2353 65.2215 51.7582 65.2215 51.7582 65.2215C51.7582 65.6986 51.281 66.1757 51.281 66.1757C51.281 66.6528 51.281 67.13 51.281 67.13C51.7582 67.6071 51.7582 68.0842 52.2353 68.0842C52.2353 68.0842 52.2353 68.0842 52.2353 68.5613C51.7582 68.5613 51.7582 68.5613 51.7582 69.0385V69.5156C52.2353 69.9927 52.2353 70.4698 52.2353 70.4698C52.7124 70.4698 52.7124 70.4698 52.7124 70.947C52.7124 71.4241 52.2353 71.4241 52.2353 71.9012C52.2353 72.3783 52.7124 72.3783 52.7124 72.8555C53.1895 73.3326 53.6667 73.3326 53.6667 73.3326V73.8097C53.6667 73.8097 53.6667 73.8097 53.6667 74.2868C53.6667 74.2868 53.6667 74.7639 54.1438 75.2411C54.1438 75.2411 54.6209 75.7182 56.0523 75.7182C57.4837 75.7182 59.8693 75.7182 61.7778 75.2411C63.6863 75.2411 64.6405 74.7639 65.5948 74.2868" stroke="#EF7F1A" stroke-width="0.903955" stroke-miterlimit="22.9256"/>
</g>
<defs>
<filter id="filter0_d_1_145" x="0.0960464" y="0.859863" width="82.8079" height="92.3506" filterUnits="userSpaceOnUse" color-interpolation-filters="sRGB">
<feFlood flood-opacity="0" result="BackgroundImageFix"/>
<feColorMatrix in="SourceAlpha" type="matrix" values="0 0 0 0 0 0 0 0 0 0 0 0 0 0 0 0 0 0 127 0" result="hardAlpha"/>
<feOffset dy="4"/>
<feGaussianBlur stdDeviation="2"/>
<feComposite in2="hardAlpha" operator="out"/>
<feColorMatrix type="matrix" values="0 0 0 0 0 0 0 0 0 0 0 0 0 0 0 0 0 0 0.25 0"/>
<feBlend mode="normal" in2="BackgroundImageFix" result="effect1_dropShadow_1_145"/>
<feBlend mode="normal" in="SourceGraphic" in2="effect1_dropShadow_1_145" result="shape"/>
</filter>
</defs>
</svg>
